{"glyphs":{" ":{"ha":453,"x_min":0,"x_max":0,"o":""},"A":{"ha":522,"x_min":0,"x_max":434,"o":"m 260 608 l 260 825 q 247 854 260 842 q 217 868 235 868 q 186 854 198 868 q 174 825 174 842 l 174 608 l 260 608 m 0 0 l 0 955 q 24 1016 0 990 q 87 1042 50 1042 l 347 1042 q 408 1016 382 1042 q 434 955 434 990 l 434 0 l 260 0 l 260 434 l 174 434 l 174 0 l 0 0 z "},"B":{"ha":522,"x_min":0,"x_max":434,"o":"m 217 174 q 247 186 235 174 q 260 217 260 198 l 260 391 q 247 420 260 408 q 217 434 235 434 l 174 434 l 174 174 l 217 174 m 217 608 q 247 620 235 608 q 260 651 260 632 l 260 825 q 247 854 260 842 q 217 868 235 868 l 174 868 l 174 608 l 217 608 m 0 0 l 0 1042 l 347 1042 q 408 1016 382 1042 q 434 955 434 990 l 434 608 q 408 545 434 571 q 347 521 382 521 q 408 495 382 521 q 434 434 434 469 l 434 87 q 408 24 434 50 q 347 0 382 0 l 0 0 z "},"C":{"ha":522,"x_min":0,"x_max":434,"o":"m 87 0 q 24 24 50 0 q 0 87 0 50 l 0 955 q 24 1016 0 990 q 87 1042 50 1042 l 347 1042 q 408 1016 382 1042 q 434 955 434 990 l 434 781 l 260 781 l 260 825 q 247 854 260 842 q 217 868 235 868 q 186 854 198 868 q 174 825 174 842 l 174 217 q 186 186 174 198 q 217 174 198 174 q 247 186 235 174 q 260 217 260 198 l 260 260 l 434 260 l 434 87 q 408 24 434 50 q 347 0 382 0 l 87 0 z "},"D":{"ha":522,"x_min":0,"x_max":434,"o":"m 217 174 q 247 186 235 174 q 260 217 260 198 l 260 825 q 247 854 260 842 q 217 868 235 868 l 174 868 l 174 174 l 217 174 m 0 0 l 0 1042 l 347 1042 q 408 1016 382 1042 q 434 955 434 990 l 434 87 q 408 24 434 50 q 347 0 382 0 l 0 0 z "},"E":{"ha":522,"x_min":0,"x_max":434,"o":"m 0 0 l 0 1042 l 434 1042 l 434 868 l 174 868 l 174 608 l 347 608 l 347 434 l 174 434 l 174 174 l 434 174 l 434 0 l 0 0 z "},"F":{"ha":522,"x_min":0,"x_max":434,"o":"m 0 0 l 0 1042 l 434 1042 l 434 868 l 174 868 l 174 608 l 347 608 l 347 434 l 174 434 l 174 0 l 0 0 z "},"G":{"ha":522,"x_min":0,"x_max":434,"o":"m 87 0 q 24 24 50 0 q 0 87 0 50 l 0 955 q 24 1016 0 990 q 87 1042 50 1042 l 434 1042 l 434 868 l 217 868 q 186 854 198 868 q 174 825 174 842 l 174 217 q 186 186 174 198 q 217 174 198 174 q 247 186 235 174 q 260 217 260 198 l 260 608 l 434 608 l 434 87 q 408 24 434 50 q 347 0 382 0 l 87 0 z "},"H":{"ha":522,"x_min":0,"x_max":434,"o":"m 0 0 l 0 1042 l 174 1042 l 174 608 l 260 608 l 260 1042 l 434 1042 l 434 0 l 260 0 l 260 434 l 174 434 l 174 0 l 0 0 z "},"I":{"ha":522,"x_min":0,"x_max":434,"o":"m 0 0 l 0 174 l 130 174 l 130 868 l 0 868 l 0 1042 l 434 1042 l 434 868 l 304 868 l 304 174 l 434 174 l 434 0 l 0 0 z "},"J":{"ha":522,"x_min":0,"x_max":434,"o":"m 87 0 q 24 24 50 0 q 0 87 0 50 l 0 347 l 174 347 l 174 217 q 186 186 174 198 q 217 174 198 174 q 247 186 235 174 q 260 217 260 198 l 260 868 l 87 868 l 87 1042 l 434 1042 l 434 87 q 408 24 434 50 q 347 0 382 0 l 87 0 z "},"K":{"ha":522,"x_min":0,"x_max":434,"o":"m 0 0 l 0 1042 l 174 1042 l 174 608 l 217 608 q 247 620 235 608 q 260 651 260 632 l 260 1042 l 434 1042 l 434 608 q 408 545 434 571 q 347 521 382 521 q 408 495 382 521 q 434 434 434 469 l 434 0 l 260 0 l 260 391 q 247 420 260 408 q 217 434 235 434 l 174 434 l 174 0 l 0 0 z "},"L":{"ha":522,"x_min":0,"x_max":434,"o":"m 0 0 l 0 1042 l 174 1042 l 174 174 l 434 174 l 434 0 l 0 0 z "},"M":{"ha":783,"x_min":0,"x_max":694,"o":"m 0 0 l 0 955 q 24 1016 0 990 q 87 1042 50 1042 l 260 1042 q 321 1016 296 1042 q 347 955 347 990 q 372 1016 347 990 q 434 1042 397 1042 l 608 1042 q 669 1016 643 1042 q 694 955 694 990 l 694 0 l 521 0 l 521 825 q 507 854 521 842 q 477 868 495 868 q 446 854 458 868 q 434 825 434 842 l 434 0 l 260 0 l 260 825 q 247 854 260 842 q 217 868 235 868 q 186 854 198 868 q 174 825 174 842 l 174 0 l 0 0 z "},"N":{"ha":522,"x_min":0,"x_max":434,"o":"m 0 0 l 0 955 q 24 1016 0 990 q 87 1042 50 1042 l 347 1042 q 408 1016 382 1042 q 434 955 434 990 l 434 0 l 260 0 l 260 825 q 247 854 260 842 q 217 868 235 868 q 186 854 198 868 q 174 825 174 842 l 174 0 l 0 0 z "},"O":{"ha":522,"x_min":0,"x_max":434,"o":"m 217 174 q 247 186 235 174 q 260 217 260 198 l 260 825 q 247 854 260 842 q 217 868 235 868 q 186 854 198 868 q 174 825 174 842 l 174 217 q 186 186 174 198 q 217 174 198 174 m 87 0 q 24 24 50 0 q 0 87 0 50 l 0 955 q 24 1016 0 990 q 87 1042 50 1042 l 347 1042 q 408 1016 382 1042 q 434 955 434 990 l 434 87 q 408 24 434 50 q 347 0 382 0 l 87 0 z "},"P":{"ha":522,"x_min":0,"x_max":434,"o":"m 217 608 q 247 620 235 608 q 260 651 260 632 l 260 825 q 247 854 260 842 q 217 868 235 868 l 174 868 l 174 608 l 217 608 m 0 0 l 0 1042 l 347 1042 q 408 1016 382 1042 q 434 955 434 990 l 434 521 q 408 458 434 484 q 347 434 382 434 l 174 434 l 174 0 l 0 0 z "},"Q":{"ha":522,"x_min":0,"x_max":434,"o":"m 217 174 q 247 186 235 174 q 260 217 260 198 l 260 825 q 247 854 260 842 q 217 868 235 868 q 186 854 198 868 q 174 825 174 842 l 174 217 q 186 186 174 198 q 217 174 198 174 m 130 -174 l 130 0 l 87 0 q 24 24 50 0 q 0 87 0 50 l 0 955 q 24 1016 0 990 q 87 1042 50 1042 l 347 1042 q 408 1016 382 1042 q 434 955 434 990 l 434 87 q 408 24 434 50 q 347 0 382 0 l 304 0 l 304 -174 l 130 -174 z "},"R":{"ha":522,"x_min":0,"x_max":434,"o":"m 217 608 q 247 620 235 608 q 260 651 260 632 l 260 825 q 247 854 260 842 q 217 868 235 868 l 174 868 l 174 608 l 217 608 m 0 0 l 0 1042 l 347 1042 q 408 1016 382 1042 q 434 955 434 990 l 434 608 q 408 545 434 571 q 347 521 382 521 q 408 495 382 521 q 434 434 434 469 l 434 0 l 260 0 l 260 391 q 247 420 260 408 q 217 434 235 434 l 174 434 l 174 0 l 0 0 z "},"S":{"ha":522,"x_min":0,"x_max":434,"o":"m 87 0 q 24 24 50 0 q 0 87 0 50 l 0 260 l 174 260 l 174 217 q 186 186 174 198 q 217 174 198 174 q 247 186 235 174 q 260 217 260 198 l 260 391 q 247 420 260 408 q 217 434 235 434 l 87 434 q 24 458 50 434 q 0 521 0 484 l 0 955 q 24 1016 0 990 q 87 1042 50 1042 l 347 1042 q 408 1016 382 1042 q 434 955 434 990 l 434 781 l 260 781 l 260 825 q 247 854 260 842 q 217 868 235 868 q 186 854 198 868 q 174 825 174 842 l 174 651 q 186 620 174 632 q 217 608 198 608 l 347 608 q 408 582 382 608 q 434 521 434 556 l 434 87 q 408 24 434 50 q 347 0 382 0 l 87 0 z "},"T":{"ha":522,"x_min":0,"x_max":434,"o":"m 130 0 l 130 868 l 0 868 l 0 1042 l 434 1042 l 434 868 l 304 868 l 304 0 l 130 0 z "},"U":{"ha":522,"x_min":0,"x_max":434,"o":"m 87 0 q 24 24 50 0 q 0 87 0 50 l 0 1042 l 174 1042 l 174 217 q 186 186 174 198 q 217 174 198 174 q 247 186 235 174 q 260 217 260 198 l 260 1042 l 434 1042 l 434 87 q 408 24 434 50 q 347 0 382 0 l 87 0 z "},"V":{"ha":522,"x_min":0,"x_max":434,"o":"m 87 0 q 24 24 50 0 q 0 87 0 50 l 0 955 q 24 1016 0 990 q 87 1042 50 1042 l 174 1042 l 174 217 q 186 186 174 198 q 217 174 198 174 q 247 186 235 174 q 260 217 260 198 l 260 1042 l 347 1042 q 408 1016 382 1042 q 434 955 434 990 l 434 87 q 408 24 434 50 q 347 0 382 0 l 87 0 z "},"W":{"ha":783,"x_min":0,"x_max":694,"o":"m 87 0 q 24 24 50 0 q 0 87 0 50 l 0 1042 l 174 1042 l 174 217 q 186 186 174 198 q 217 174 198 174 q 247 186 235 174 q 260 217 260 198 l 260 1042 l 434 1042 l 434 217 q 446 186 434 198 q 477 174 458 174 q 507 186 495 174 q 521 217 521 198 l 521 1042 l 694 1042 l 694 87 q 669 24 694 50 q 608 0 643 0 l 434 0 q 372 24 397 0 q 347 87 347 50 q 321 24 347 50 q 260 0 296 0 l 87 0 z "},"X":{"ha":522,"x_min":0,"x_max":434,"o":"m 0 0 l 0 434 q 24 495 0 469 q 87 521 50 521 q 24 545 50 521 q 0 608 0 571 l 0 1042 l 174 1042 l 174 651 q 186 620 174 632 q 217 608 198 608 q 247 620 235 608 q 260 651 260 632 l 260 1042 l 434 1042 l 434 608 q 408 545 434 571 q 347 521 382 521 q 408 495 382 521 q 434 434 434 469 l 434 0 l 260 0 l 260 391 q 247 420 260 408 q 217 434 235 434 q 186 420 198 434 q 174 391 174 408 l 174 0 l 0 0 z "},"Y":{"ha":522,"x_min":0,"x_max":434,"o":"m 87 0 q 24 24 50 0 q 0 87 0 50 l 0 260 l 174 260 l 174 217 q 186 186 174 198 q 217 174 198 174 q 247 186 235 174 q 260 217 260 198 l 260 434 l 87 434 q 24 458 50 434 q 0 521 0 484 l 0 1042 l 174 1042 l 174 651 q 186 620 174 632 q 217 608 198 608 l 260 608 l 260 1042 l 434 1042 l 434 87 q 408 24 434 50 q 347 0 382 0 l 87 0 z "},"Z":{"ha":522,"x_min":0,"x_max":434,"o":"m 0 0 l 0 521 q 24 582 0 556 q 87 608 50 608 l 260 608 l 260 868 l 174 868 l 174 781 l 0 781 l 0 1042 l 434 1042 l 434 521 q 408 458 434 484 q 347 434 382 434 l 174 434 l 174 174 l 260 174 l 260 260 l 434 260 l 434 0 l 0 0 z "},"a":{"ha":522,"x_min":0,"x_max":434,"o":"m 260 608 l 260 825 q 247 854 260 842 q 217 868 235 868 q 186 854 198 868 q 174 825 174 842 l 174 608 l 260 608 m 0 0 l 0 955 q 24 1016 0 990 q 87 1042 50 1042 l 347 1042 q 408 1016 382 1042 q 434 955 434 990 l 434 0 l 260 0 l 260 434 l 174 434 l 174 0 l 0 0 z "},"b":{"ha":522,"x_min":0,"x_max":434,"o":"m 217 174 q 247 186 235 174 q 260 217 260 198 l 260 391 q 247 420 260 408 q 217 434 235 434 l 174 434 l 174 174 l 217 174 m 217 608 q 247 620 235 608 q 260 651 260 632 l 260 825 q 247 854 260 842 q 217 868 235 868 l 174 868 l 174 608 l 217 608 m 0 0 l 0 1042 l 347 1042 q 408 1016 382 1042 q 434 955 434 990 l 434 608 q 408 545 434 571 q 347 521 382 521 q 408 495 382 521 q 434 434 434 469 l 434 87 q 408 24 434 50 q 347 0 382 0 l 0 0 z "},"c":{"ha":522,"x_min":0,"x_max":434,"o":"m 87 0 q 24 24 50 0 q 0 87 0 50 l 0 955 q 24 1016 0 990 q 87 1042 50 1042 l 347 1042 q 408 1016 382 1042 q 434 955 434 990 l 434 781 l 260 781 l 260 825 q 247 854 260 842 q 217 868 235 868 q 186 854 198 868 q 174 825 174 842 l 174 217 q 186 186 174 198 q 217 174 198 174 q 247 186 235 174 q 260 217 260 198 l 260 260 l 434 260 l 434 87 q 408 24 434 50 q 347 0 382 0 l 87 0 z "},"d":{"ha":522,"x_min":0,"x_max":434,"o":"m 217 174 q 247 186 235 174 q 260 217 260 198 l 260 825 q 247 854 260 842 q 217 868 235 868 l 174 868 l 174 174 l 217 174 m 0 0 l 0 1042 l 347 1042 q 408 1016 382 1042 q 434 955 434 990 l 434 87 q 408 24 434 50 q 347 0 382 0 l 0 0 z "},"e":{"ha":522,"x_min":0,"x_max":434,"o":"m 0 0 l 0 1042 l 434 1042 l 434 868 l 174 868 l 174 608 l 347 608 l 347 434 l 174 434 l 174 174 l 434 174 l 434 0 l 0 0 z "},"f":{"ha":522,"x_min":0,"x_max":434,"o":"m 0 0 l 0 1042 l 434 1042 l 434 868 l 174 868 l 174 608 l 347 608 l 347 434 l 174 434 l 174 0 l 0 0 z "},"g":{"ha":522,"x_min":0,"x_max":434,"o":"m 87 0 q 24 24 50 0 q 0 87 0 50 l 0 955 q 24 1016 0 990 q 87 1042 50 1042 l 434 1042 l 434 868 l 217 868 q 186 854 198 868 q 174 825 174 842 l 174 217 q 186 186 174 198 q 217 174 198 174 q 247 186 235 174 q 260 217 260 198 l 260 608 l 434 608 l 434 87 q 408 24 434 50 q 347 0 382 0 l 87 0 z "},"h":{"ha":522,"x_min":0,"x_max":434,"o":"m 0 0 l 0 1042 l 174 1042 l 174 608 l 260 608 l 260 1042 l 434 1042 l 434 0 l 260 0 l 260 434 l 174 434 l 174 0 l 0 0 z "},"i":{"ha":522,"x_min":0,"x_max":434,"o":"m 0 0 l 0 174 l 130 174 l 130 868 l 0 868 l 0 1042 l 434 1042 l 434 868 l 304 868 l 304 174 l 434 174 l 434 0 l 0 0 z "},"j":{"ha":522,"x_min":0,"x_max":434,"o":"m 87 0 q 24 24 50 0 q 0 87 0 50 l 0 347 l 174 347 l 174 217 q 186 186 174 198 q 217 174 198 174 q 247 186 235 174 q 260 217 260 198 l 260 868 l 87 868 l 87 1042 l 434 1042 l 434 87 q 408 24 434 50 q 347 0 382 0 l 87 0 z "},"k":{"ha":522,"x_min":0,"x_max":434,"o":"m 0 0 l 0 1042 l 174 1042 l 174 608 l 217 608 q 247 620 235 608 q 260 651 260 632 l 260 1042 l 434 1042 l 434 608 q 408 545 434 571 q 347 521 382 521 q 408 495 382 521 q 434 434 434 469 l 434 0 l 260 0 l 260 391 q 247 420 260 408 q 217 434 235 434 l 174 434 l 174 0 l 0 0 z "},"l":{"ha":522,"x_min":0,"x_max":434,"o":"m 0 0 l 0 1042 l 174 1042 l 174 174 l 434 174 l 434 0 l 0 0 z "},"m":{"ha":783,"x_min":0,"x_max":694,"o":"m 0 0 l 0 955 q 24 1016 0 990 q 87 1042 50 1042 l 260 1042 q 321 1016 296 1042 q 347 955 347 990 q 372 1016 347 990 q 434 1042 397 1042 l 608 1042 q 669 1016 643 1042 q 694 955 694 990 l 694 0 l 521 0 l 521 825 q 507 854 521 842 q 477 868 495 868 q 446 854 458 868 q 434 825 434 842 l 434 0 l 260 0 l 260 825 q 247 854 260 842 q 217 868 235 868 q 186 854 198 868 q 174 825 174 842 l 174 0 l 0 0 z "},"n":{"ha":522,"x_min":0,"x_max":434,"o":"m 0 0 l 0 955 q 24 1016 0 990 q 87 1042 50 1042 l 347 1042 q 408 1016 382 1042 q 434 955 434 990 l 434 0 l 260 0 l 260 825 q 247 854 260 842 q 217 868 235 868 q 186 854 198 868 q 174 825 174 842 l 174 0 l 0 0 z "},"o":{"ha":522,"x_min":0,"x_max":434,"o":"m 217 174 q 247 186 235 174 q 260 217 260 198 l 260 825 q 247 854 260 842 q 217 868 235 868 q 186 854 198 868 q 174 825 174 842 l 174 217 q 186 186 174 198 q 217 174 198 174 m 87 0 q 24 24 50 0 q 0 87 0 50 l 0 955 q 24 1016 0 990 q 87 1042 50 1042 l 347 1042 q 408 1016 382 1042 q 434 955 434 990 l 434 87 q 408 24 434 50 q 347 0 382 0 l 87 0 z "},"p":{"ha":522,"x_min":0,"x_max":434,"o":"m 217 608 q 247 620 235 608 q 260 651 260 632 l 260 825 q 247 854 260 842 q 217 868 235 868 l 174 868 l 174 608 l 217 608 m 0 0 l 0 1042 l 347 1042 q 408 1016 382 1042 q 434 955 434 990 l 434 521 q 408 458 434 484 q 347 434 382 434 l 174 434 l 174 0 l 0 0 z "},"q":{"ha":522,"x_min":0,"x_max":434,"o":"m 217 174 q 247 186 235 174 q 260 217 260 198 l 260 825 q 247 854 260 842 q 217 868 235 868 q 186 854 198 868 q 174 825 174 842 l 174 217 q 186 186 174 198 q 217 174 198 174 m 130 -174 l 130 0 l 87 0 q 24 24 50 0 q 0 87 0 50 l 0 955 q 24 1016 0 990 q 87 1042 50 1042 l 347 1042 q 408 1016 382 1042 q 434 955 434 990 l 434 87 q 408 24 434 50 q 347 0 382 0 l 304 0 l 304 -174 l 130 -174 z "},"r":{"ha":522,"x_min":0,"x_max":434,"o":"m 217 608 q 247 620 235 608 q 260 651 260 632 l 260 825 q 247 854 260 842 q 217 868 235 868 l 174 868 l 174 608 l 217 608 m 0 0 l 0 1042 l 347 1042 q 408 1016 382 1042 q 434 955 434 990 l 434 608 q 408 545 434 571 q 347 521 382 521 q 408 495 382 521 q 434 434 434 469 l 434 0 l 260 0 l 260 391 q 247 420 260 408 q 217 434 235 434 l 174 434 l 174 0 l 0 0 z "},"s":{"ha":522,"x_min":0,"x_max":434,"o":"m 87 0 q 24 24 50 0 q 0 87 0 50 l 0 260 l 174 260 l 174 217 q 186 186 174 198 q 217 174 198 174 q 247 186 235 174 q 260 217 260 198 l 260 391 q 247 420 260 408 q 217 434 235 434 l 87 434 q 24 458 50 434 q 0 521 0 484 l 0 955 q 24 1016 0 990 q 87 1042 50 1042 l 347 1042 q 408 1016 382 1042 q 434 955 434 990 l 434 781 l 260 781 l 260 825 q 247 854 260 842 q 217 868 235 868 q 186 854 198 868 q 174 825 174 842 l 174 651 q 186 620 174 632 q 217 608 198 608 l 347 608 q 408 582 382 608 q 434 521 434 556 l 434 87 q 408 24 434 50 q 347 0 382 0 l 87 0 z "},"t":{"ha":522,"x_min":0,"x_max":434,"o":"m 130 0 l 130 868 l 0 868 l 0 1042 l 434 1042 l 434 868 l 304 868 l 304 0 l 130 0 z "},"u":{"ha":522,"x_min":0,"x_max":434,"o":"m 87 0 q 24 24 50 0 q 0 87 0 50 l 0 1042 l 174 1042 l 174 217 q 186 186 174 198 q 217 174 198 174 q 247 186 235 174 q 260 217 260 198 l 260 1042 l 434 1042 l 434 87 q 408 24 434 50 q 347 0 382 0 l 87 0 z "},"v":{"ha":522,"x_min":0,"x_max":434,"o":"m 87 0 q 24 24 50 0 q 0 87 0 50 l 0 955 q 24 1016 0 990 q 87 1042 50 1042 l 174 1042 l 174 217 q 186 186 174 198 q 217 174 198 174 q 247 186 235 174 q 260 217 260 198 l 260 1042 l 347 1042 q 408 1016 382 1042 q 434 955 434 990 l 434 87 q 408 24 434 50 q 347 0 382 0 l 87 0 z "},"w":{"ha":783,"x_min":0,"x_max":694,"o":"m 87 0 q 24 24 50 0 q 0 87 0 50 l 0 1042 l 174 1042 l 174 217 q 186 186 174 198 q 217 174 198 174 q 247 186 235 174 q 260 217 260 198 l 260 1042 l 434 1042 l 434 217 q 446 186 434 198 q 477 174 458 174 q 507 186 495 174 q 521 217 521 198 l 521 1042 l 694 1042 l 694 87 q 669 24 694 50 q 608 0 643 0 l 434 0 q 372 24 397 0 q 347 87 347 50 q 321 24 347 50 q 260 0 296 0 l 87 0 z "},"x":{"ha":522,"x_min":0,"x_max":434,"o":"m 0 0 l 0 434 q 24 495 0 469 q 87 521 50 521 q 24 545 50 521 q 0 608 0 571 l 0 1042 l 174 1042 l 174 651 q 186 620 174 632 q 217 608 198 608 q 247 620 235 608 q 260 651 260 632 l 260 1042 l 434 1042 l 434 608 q 408 545 434 571 q 347 521 382 521 q 408 495 382 521 q 434 434 434 469 l 434 0 l 260 0 l 260 391 q 247 420 260 408 q 217 434 235 434 q 186 420 198 434 q 174 391 174 408 l 174 0 l 0 0 z "},"y":{"ha":522,"x_min":0,"x_max":434,"o":"m 87 0 q 24 24 50 0 q 0 87 0 50 l 0 260 l 174 260 l 174 217 q 186 186 174 198 q 217 174 198 174 q 247 186 235 174 q 260 217 260 198 l 260 434 l 87 434 q 24 458 50 434 q 0 521 0 484 l 0 1042 l 174 1042 l 174 651 q 186 620 174 632 q 217 608 198 608 l 260 608 l 260 1042 l 434 1042 l 434 87 q 408 24 434 50 q 347 0 382 0 l 87 0 z "},"z":{"ha":522,"x_min":0,"x_max":434,"o":"m 0 0 l 0 521 q 24 582 0 556 q 87 608 50 608 l 260 608 l 260 868 l 174 868 l 174 781 l 0 781 l 0 1042 l 434 1042 l 434 521 q 408 458 434 484 q 347 434 382 434 l 174 434 l 174 174 l 260 174 l 260 260 l 434 260 l 434 0 l 0 0 z "}}}
